<?xml version="1.0" encoding="utf-8"?>
<!-- Generator: Adobe Illustrator 16.0.3, SVG Export Plug-In . SVG Version: 6.00 Build 0)  -->
<!DOCTYPE svg PUBLIC "-//W3C//DTD SVG 1.1//EN" "http://www.w3.org/Graphics/SVG/1.1/DTD/svg11.dtd">
<svg version="1.1" id="Capa_1" xmlns="http://www.w3.org/2000/svg" xmlns:xlink="http://www.w3.org/1999/xlink" x="0px" y="0px"
	 width="1019.331px" height="570.998px" viewBox="0 0 1019.331 570.998" enable-background="new 0 0 1019.331 570.998"
	 xml:space="preserve">
<ellipse fill="#C10F47" cx="638.274" cy="135.554" rx="52.333" ry="14.286"/>
<rect x="580.322" y="129.007" fill="none" width="116.667" height="20.833"/>
<text transform="matrix(1 0 0 1 601.4077 137.5269)" fill="#F7F7F8" font-family="'MyriadPro-Regular'" font-size="12">run_samplers.r</text>
<ellipse fill="#C10F47" cx="641.482" cy="267.288" rx="103.833" ry="14.285"/>
<rect x="547.696" y="260.74" fill="none" width="185.667" height="20.833"/>
<text transform="matrix(1 0 0 1 550.0449 269.2598)" fill="#F7F7F8" font-family="'MyriadPro-Regular'" font-size="12">standardize_samplers_information.r</text>
<g>
	<ellipse fill="#C10F47" cx="515.929" cy="424.017" rx="82.667" ry="14.285"/>
	<rect x="423.095" y="417.557" fill="none" width="185.667" height="20.832"/>
	<text transform="matrix(1 0 0 1 441.4941 426.0752)" fill="#F7F7F8" font-family="'MyriadPro-Regular'" font-size="12">rq1_samplers_scalability.Rmd</text>
</g>
<g>
	<ellipse fill="#C10F47" cx="347.095" cy="424.061" rx="76" ry="14.285"/>
	<rect x="277.81" y="417.513" fill="none" width="136.667" height="20.833"/>
	<text transform="matrix(1 0 0 1 280.6055 426.0313)" fill="#F7F7F8" font-family="'MyriadPro-Regular'" font-size="12">describe_benchmark.Rmd</text>
</g>
<g>
	<ellipse fill="#C10F47" cx="706.914" cy="424.06" rx="102.334" ry="14.286"/>
	<rect x="610.468" y="417.512" fill="none" width="186.827" height="20.834"/>
	<text transform="matrix(1.0062 0 0 1 610.731 426.0313)" fill="#F7F7F8" font-family="'MyriadPro-Regular'" font-size="12">rq2_goodness_of_fit_scalability.Rmd</text>
</g>
<ellipse fill="#C10F47" cx="903.097" cy="424.061" rx="85.23" ry="14.285"/>
<rect x="809.248" y="417.513" fill="none" width="185.666" height="20.833"/>
<text transform="matrix(1 0 0 1 826.0908 426.0313)" fill="#F7F7F8" font-family="'MyriadPro-Regular'" font-size="12">rq3_samplers_uniformity.Rmd</text>
<path fill="#F2F2F2" d="M729.657,195.042h8.289l-12.81,12.057v-7.535C725.137,197.076,727.171,195.042,729.657,195.042z"/>
<g>
	<path fill="#DADEE0" d="M754.788,64.949c0-1.865-1.526-3.391-3.391-3.391h-25.433c-1.865,0-3.391,1.526-3.391,3.391v31.648
		c0,1.865,1.525,3.391,3.391,3.391h19.213l9.607-9.042L754.788,64.949z"/>
	<path fill="#0094D4" d="M722.574,64.949c0-1.865,1.525-3.391,3.391-3.391h22.606v-2.826c0-1.865-1.525-3.391-3.391-3.391h-25.432
		c-1.866,0-3.392,1.526-3.392,3.391V90.38c0,1.866,1.525,3.391,3.392,3.391h2.825V64.949z"/>
	<g>
		<path fill="#1F4254" d="M731.052,76.534h15.258c0.469,0,0.849-0.38,0.849-0.847c0-0.469-0.38-0.849-0.849-0.849h-15.258
			c-0.469,0-0.848,0.38-0.848,0.849C730.204,76.154,730.583,76.534,731.052,76.534"/>
		<path fill="#1F4254" d="M731.052,70.883h15.258c0.469,0,0.849-0.38,0.849-0.847c0-0.469-0.38-0.849-0.849-0.849h-15.258
			c-0.469,0-0.848,0.38-0.848,0.849C730.204,70.502,730.583,70.883,731.052,70.883"/>
		<path fill="#1F4254" d="M731.052,82.186h15.258c0.469,0,0.849-0.38,0.849-0.847c0-0.469-0.38-0.849-0.849-0.849h-15.258
			c-0.469,0-0.848,0.38-0.848,0.849C730.204,81.805,730.583,82.186,731.052,82.186"/>
		<path fill="#1F4254" d="M731.052,87.837h8.477c0.468,0,0.848-0.38,0.848-0.847c0-0.469-0.38-0.849-0.848-0.849h-8.477
			c-0.469,0-0.848,0.38-0.848,0.849C730.204,87.457,730.583,87.837,731.052,87.837"/>
	</g>
</g>
<rect x="708.699" y="202.626" fill="none" width="144.666" height="16.334"/>
<text transform="matrix(1 0 0 1 715.0215 211.1455)" font-family="'MyriadPro-Regular'" font-size="12">population_desc_stats.csv  </text>
<text transform="matrix(1 0 0 1 490.416 216.1289)" font-family="'MyriadPro-Regular'" font-size="12">samplers_stats.csv </text>
<path fill="#DADEE0" d="M358.055,461.819c0-1.864-1.526-3.391-3.391-3.391h-25.433c-1.865,0-3.391,1.526-3.391,3.391v31.647
	c0,1.865,1.525,3.391,3.391,3.391h19.213l9.607-9.041L358.055,461.819z"/>
<g>
	<path fill="#1F4254" d="M334.318,475.665h15.258c0.469,0,0.849-0.38,0.849-0.847c0-0.469-0.38-0.849-0.849-0.849h-15.258
		c-0.469,0-0.848,0.38-0.848,0.849C333.471,475.285,333.85,475.665,334.318,475.665"/>
	<path fill="#1F4254" d="M334.318,470.015h15.258c0.469,0,0.849-0.381,0.849-0.848c0-0.469-0.38-0.849-0.849-0.849h-15.258
		c-0.469,0-0.848,0.38-0.848,0.849C333.471,469.634,333.85,470.015,334.318,470.015"/>
	<path fill="#1F4254" d="M334.318,481.317h15.258c0.469,0,0.849-0.381,0.849-0.848c0-0.469-0.38-0.849-0.849-0.849h-15.258
		c-0.469,0-0.848,0.38-0.848,0.849C333.471,480.937,333.85,481.317,334.318,481.317"/>
	<path fill="#1F4254" d="M334.318,486.968h8.477c0.468,0,0.848-0.38,0.848-0.847c0-0.469-0.38-0.849-0.848-0.849h-8.477
		c-0.469,0-0.848,0.38-0.848,0.849C333.471,486.588,333.85,486.968,334.318,486.968"/>
</g>
<rect x="498.98" y="43.182" fill="none" width="88.095" height="16.334"/>
<text transform="matrix(1 0 0 1 507.9341 51.7017)" font-family="'MyriadPro-Regular'" font-size="12">model.dimacs</text>
<rect x="594.607" y="43.182" fill="none" width="88.095" height="16.335"/>
<text transform="matrix(1 0 0 1 602.7393 51.7017)" font-family="'MyriadPro-Regular'" font-size="12">model.dddmp</text>
<rect x="691.243" y="43.182" fill="none" width="88.095" height="16.334"/>
<text transform="matrix(1 0 0 1 709.5322 51.7012)" font-family="'MyriadPro-Regular'" font-size="12">model.nnf</text>
<g>
	<path fill="#DADEE0" d="M562.525,64.949c0-1.865-1.526-3.391-3.391-3.391h-25.433c-1.865,0-3.391,1.526-3.391,3.391v31.648
		c0,1.864,1.525,3.391,3.391,3.391h19.213l9.607-9.042L562.525,64.949z"/>
	<path fill="#0094D4" d="M530.312,64.949c0-1.865,1.525-3.391,3.391-3.391h22.606v-2.826c0-1.865-1.525-3.391-3.391-3.391h-25.432
		c-1.866,0-3.392,1.526-3.392,3.391V90.38c0,1.866,1.525,3.391,3.392,3.391h2.825V64.949z"/>
	<g>
		<path fill="#1F4254" d="M538.789,76.534h15.258c0.469,0,0.849-0.38,0.849-0.847c0-0.469-0.38-0.849-0.849-0.849h-15.258
			c-0.469,0-0.848,0.38-0.848,0.849C537.941,76.154,538.32,76.534,538.789,76.534"/>
		<path fill="#1F4254" d="M538.789,70.883h15.258c0.469,0,0.849-0.38,0.849-0.847c0-0.469-0.38-0.849-0.849-0.849h-15.258
			c-0.469,0-0.848,0.38-0.848,0.849C537.941,70.502,538.32,70.883,538.789,70.883"/>
		<path fill="#1F4254" d="M538.789,82.186h15.258c0.469,0,0.849-0.38,0.849-0.847c0-0.469-0.38-0.849-0.849-0.849h-15.258
			c-0.469,0-0.848,0.38-0.848,0.849C537.941,81.805,538.32,82.186,538.789,82.186"/>
		<path fill="#1F4254" d="M538.789,87.837h8.477c0.468,0,0.848-0.38,0.848-0.847c0-0.469-0.38-0.849-0.848-0.849h-8.477
			c-0.469,0-0.848,0.38-0.848,0.849C537.941,87.457,538.32,87.837,538.789,87.837"/>
	</g>
</g>
<g>
	<path fill="#DADEE0" d="M660.979,64.949c0-1.865-1.527-3.391-3.391-3.391h-25.433c-1.865,0-3.391,1.526-3.391,3.391v31.648
		c0,1.864,1.525,3.391,3.391,3.391h19.212l9.607-9.042L660.979,64.949z"/>
	<path fill="#0094D4" d="M628.765,64.949c0-1.865,1.525-3.391,3.391-3.391h22.607v-2.826c0-1.865-1.525-3.391-3.391-3.391H625.94
		c-1.866,0-3.392,1.526-3.392,3.391V90.38c0,1.866,1.525,3.391,3.392,3.391h2.825V64.949z"/>
	<g>
		<path fill="#1F4254" d="M637.243,76.534h15.258c0.469,0,0.848-0.38,0.848-0.847c0-0.469-0.379-0.849-0.848-0.849h-15.258
			c-0.469,0-0.848,0.38-0.848,0.849C636.395,76.154,636.774,76.534,637.243,76.534"/>
		<path fill="#1F4254" d="M637.243,70.883h15.258c0.469,0,0.848-0.38,0.848-0.847c0-0.469-0.379-0.849-0.848-0.849h-15.258
			c-0.469,0-0.848,0.38-0.848,0.849C636.395,70.502,636.774,70.883,637.243,70.883"/>
		<path fill="#1F4254" d="M637.243,82.186h15.258c0.469,0,0.848-0.38,0.848-0.847c0-0.469-0.379-0.849-0.848-0.849h-15.258
			c-0.469,0-0.848,0.38-0.848,0.849C636.395,81.805,636.774,82.186,637.243,82.186"/>
		<path fill="#1F4254" d="M637.243,87.837h8.477c0.467,0,0.848-0.38,0.848-0.847c0-0.469-0.381-0.849-0.848-0.849h-8.477
			c-0.469,0-0.848,0.38-0.848,0.849C636.395,87.457,636.774,87.837,637.243,87.837"/>
	</g>
</g>
<rect x="602.519" y="209.529" fill="none" width="88.096" height="45.527"/>
<text transform="matrix(1 0 0 1 617.7969 218.0483)"><tspan x="0" y="0" font-family="'MyriadPro-Regular'" font-size="12">model.bdd, </tspan><tspan x="1.686" y="14.4" font-family="'MyriadPro-Regular'" font-size="12">model.kus,</tspan><tspan x="19.848" y="28.801" font-family="'MyriadPro-Regular'" font-size="12">etc.</tspan></text>
<path fill="#DADEE0" d="M800.53,164.252c0-1.864-1.526-3.391-3.391-3.391h-25.433c-1.865,0-3.391,1.526-3.391,3.391v31.647
	c0,1.865,1.525,3.391,3.391,3.391h19.213l9.607-9.041L800.53,164.252z"/>
<g>
	<path fill="#1F4254" d="M776.794,178.098h15.258c0.469,0,0.849-0.38,0.849-0.847c0-0.469-0.38-0.849-0.849-0.849h-15.258
		c-0.469,0-0.848,0.38-0.848,0.849C775.946,177.718,776.325,178.098,776.794,178.098"/>
	<path fill="#1F4254" d="M776.794,172.447h15.258c0.469,0,0.849-0.381,0.849-0.848c0-0.469-0.38-0.849-0.849-0.849h-15.258
		c-0.469,0-0.848,0.38-0.848,0.849C775.946,172.066,776.325,172.447,776.794,172.447"/>
	<path fill="#1F4254" d="M776.794,183.75h15.258c0.469,0,0.849-0.381,0.849-0.848c0-0.469-0.38-0.849-0.849-0.849h-15.258
		c-0.469,0-0.848,0.38-0.848,0.849C775.946,183.369,776.325,183.75,776.794,183.75"/>
	<path fill="#1F4254" d="M776.794,189.4h8.477c0.468,0,0.848-0.38,0.848-0.847c0-0.469-0.38-0.849-0.848-0.849h-8.477
		c-0.469,0-0.848,0.38-0.848,0.849C775.946,189.021,776.325,189.4,776.794,189.4"/>
</g>
<path fill="#DADEE0" d="M526.194,167.925c0-1.864-1.527-3.391-3.391-3.391H497.37c-1.865,0-3.391,1.526-3.391,3.391v31.647
	c0,1.865,1.525,3.391,3.391,3.391h19.213l9.607-9.041L526.194,167.925z"/>
<g>
	<path fill="#1F4254" d="M502.458,181.771h15.258c0.469,0,0.848-0.38,0.848-0.847c0-0.469-0.379-0.849-0.848-0.849h-15.258
		c-0.469,0-0.848,0.38-0.848,0.849C501.61,181.391,501.989,181.771,502.458,181.771"/>
	<path fill="#1F4254" d="M502.458,176.121h15.258c0.469,0,0.848-0.381,0.848-0.848c0-0.469-0.379-0.849-0.848-0.849h-15.258
		c-0.469,0-0.848,0.38-0.848,0.849C501.61,175.74,501.989,176.121,502.458,176.121"/>
	<path fill="#1F4254" d="M502.458,187.423h15.258c0.469,0,0.848-0.381,0.848-0.848c0-0.469-0.379-0.849-0.848-0.849h-15.258
		c-0.469,0-0.848,0.38-0.848,0.849C501.61,187.042,501.989,187.423,502.458,187.423"/>
	<path fill="#1F4254" d="M502.458,193.074h8.477c0.467,0,0.848-0.38,0.848-0.847c0-0.469-0.381-0.849-0.848-0.849h-8.477
		c-0.469,0-0.848,0.38-0.848,0.849C501.61,192.694,501.989,193.074,502.458,193.074"/>
</g>
<g>
	<path fill="#DADEE0" d="M660.979,172.082c0-1.865-1.526-3.391-3.391-3.391h-25.433c-1.865,0-3.391,1.525-3.391,3.391v31.648
		c0,1.863,1.525,3.391,3.391,3.391h19.213l9.607-9.043L660.979,172.082z"/>
	<path fill="#0094D4" d="M628.765,172.082c0-1.865,1.525-3.391,3.391-3.391h22.606v-2.826c0-1.865-1.525-3.391-3.391-3.391h-25.432
		c-1.866,0-3.392,1.525-3.392,3.391v31.647c0,1.866,1.525,3.392,3.392,3.392h2.825V172.082z"/>
	<g>
		<path fill="#1F4254" d="M637.242,183.667H652.5c0.469,0,0.849-0.38,0.849-0.847c0-0.469-0.38-0.85-0.849-0.85h-15.258
			c-0.469,0-0.848,0.381-0.848,0.85C636.395,183.287,636.773,183.667,637.242,183.667"/>
		<path fill="#1F4254" d="M637.242,178.015H652.5c0.469,0,0.849-0.381,0.849-0.848c0-0.469-0.38-0.848-0.849-0.848h-15.258
			c-0.469,0-0.848,0.379-0.848,0.848C636.395,177.634,636.773,178.015,637.242,178.015"/>
		<path fill="#1F4254" d="M637.242,189.318H652.5c0.469,0,0.849-0.381,0.849-0.848c0-0.469-0.38-0.848-0.849-0.848h-15.258
			c-0.469,0-0.848,0.379-0.848,0.848C636.395,188.937,636.773,189.318,637.242,189.318"/>
		<path fill="#1F4254" d="M637.242,194.969h8.477c0.468,0,0.848-0.38,0.848-0.847c0-0.469-0.38-0.85-0.848-0.85h-8.477
			c-0.469,0-0.848,0.381-0.848,0.85C636.395,194.589,636.773,194.969,637.242,194.969"/>
	</g>
</g>
<rect x="588.481" y="342.332" fill="none" width="106" height="45.527"/>
<text transform="matrix(1 0 0 1 592.4683 350.8516)"><tspan x="0" y="0" font-family="'MyriadPro-Regular'" font-size="12">model_satdisy.bdd, </tspan><tspan x="2.526" y="14.4" font-family="'MyriadPro-Regular'" font-size="12">model_satdist.kus,</tspan><tspan x="40.091" y="28.801" font-family="'MyriadPro-Regular'" font-size="12">etc.</tspan></text>
<g>
	<path fill="#DADEE0" d="M660.696,303.513c0-1.865-1.526-3.391-3.391-3.391h-25.433c-1.865,0-3.391,1.525-3.391,3.391v31.648
		c0,1.863,1.525,3.391,3.391,3.391h19.213l9.607-9.043L660.696,303.513z"/>
	<path fill="#0094D4" d="M628.482,303.513c0-1.865,1.525-3.391,3.391-3.391h22.606v-2.826c0-1.865-1.525-3.391-3.391-3.391h-25.432
		c-1.866,0-3.392,1.525-3.392,3.391v31.647c0,1.866,1.525,3.392,3.392,3.392h2.825V303.513z"/>
	<g>
		<path fill="#1F4254" d="M636.96,315.098h15.258c0.469,0,0.849-0.38,0.849-0.847c0-0.469-0.38-0.85-0.849-0.85H636.96
			c-0.469,0-0.848,0.381-0.848,0.85C636.112,314.718,636.491,315.098,636.96,315.098"/>
		<path fill="#1F4254" d="M636.96,309.446h15.258c0.469,0,0.849-0.381,0.849-0.848c0-0.469-0.38-0.848-0.849-0.848H636.96
			c-0.469,0-0.848,0.379-0.848,0.848C636.112,309.065,636.491,309.446,636.96,309.446"/>
		<path fill="#1F4254" d="M636.96,320.749h15.258c0.469,0,0.849-0.381,0.849-0.848c0-0.469-0.38-0.848-0.849-0.848H636.96
			c-0.469,0-0.848,0.379-0.848,0.848C636.112,320.368,636.491,320.749,636.96,320.749"/>
		<path fill="#1F4254" d="M636.96,326.4h8.477c0.468,0,0.848-0.38,0.848-0.847c0-0.469-0.38-0.85-0.848-0.85h-8.477
			c-0.469,0-0.848,0.381-0.848,0.85C636.112,326.021,636.491,326.4,636.96,326.4"/>
	</g>
</g>
<g>
	<g>
		
			<line fill="none" stroke="#211915" stroke-width="2" stroke-miterlimit="10" x1="552.915" y1="99.988" x2="605.063" y2="120.658"/>
		<g>
			<polygon fill="#211915" points="611.627,123.26 600.88,123.373 604.573,120.463 603.875,115.815 			"/>
		</g>
	</g>
</g>
<g>
	<g>
		
			<line fill="none" stroke="#211915" stroke-width="2" stroke-miterlimit="10" x1="641.481" y1="99.988" x2="641.481" y2="114.237"/>
		<g>
			<polygon fill="#211915" points="641.481,121.298 637.416,111.349 641.481,113.709 645.546,111.349 			"/>
		</g>
	</g>
</g>
<g>
	<g>
		
			<line fill="none" stroke="#211915" stroke-width="2" stroke-miterlimit="10" x1="733.363" y1="99.988" x2="677.609" y2="120.792"/>
		<g>
			<polygon fill="#211915" points="670.994,123.26 678.895,115.973 678.104,120.607 681.736,123.59 			"/>
		</g>
	</g>
</g>
<g>
	<g>
		<line fill="none" stroke="#211915" stroke-width="2" stroke-miterlimit="10" x1="638.274" y1="149.84" x2="638.274" y2="158.8"/>
		<g>
			<polygon fill="#211915" points="638.274,165.861 634.209,155.912 638.274,158.272 642.339,155.912 			"/>
		</g>
	</g>
</g>
<g>
	<g>
		<path fill="none" stroke="#211915" stroke-width="2" stroke-miterlimit="10" d="M660.327,190.332
			c7.327,1.769,15.321,3.549,21.032,8.818c5.457,5.035,7.326,12.435,6.974,19.655c-0.561,11.497-5.614,21.136-13.37,28.858"/>
		<g>
			<polygon fill="#211915" points="669.661,252.332 674.303,242.638 675.283,247.236 679.763,248.662 			"/>
		</g>
	</g>
</g>
<g>
	<g>
		
			<line fill="none" stroke="#211915" stroke-width="2" stroke-miterlimit="10" x1="671.882" y1="147.352" x2="766.354" y2="166.917"/>
		<g>
			<polygon fill="#211915" points="773.268,168.349 762.7,170.313 765.837,166.81 764.35,162.352 			"/>
		</g>
	</g>
</g>
<g>
	<g>
		
			<line fill="none" stroke="#211915" stroke-width="2" stroke-miterlimit="10" x1="641.481" y1="281.573" x2="641.481" y2="290.58"/>
		<g>
			<polygon fill="#211915" points="641.481,297.64 637.416,287.691 641.481,290.052 645.546,287.691 			"/>
		</g>
	</g>
</g>
<g>
	<g>
		<path fill="none" stroke="#211915" stroke-width="2" stroke-miterlimit="10" d="M494.328,178.999c0.1-0.425,0.07-0.837-0.09-1.237
			c-30.958,7.937-62.306,15.65-91.76,28.284c-24.046,10.314-47.255,24.531-62.793,46.068c-14.963,20.74-20.765,46.013-21.829,71.218
			c-1.158,27.435,2.462,54.852,6.18,82.006"/>
		<g>
			<polygon fill="#211915" points="324.994,412.332 319.635,403.016 323.979,404.812 327.691,401.929 			"/>
		</g>
	</g>
</g>
<g>
	<g>
		<path fill="none" stroke="#211915" stroke-width="2" stroke-miterlimit="10" d="M494.994,184.999
			c-18.697,12.111-37.564,24.153-54.902,38.186c-13.911,11.259-27.571,24.192-35.744,40.363
			c-6.951,13.753-8.477,29.061-4.416,43.922c4.874,17.835,15.968,33.536,27.651,47.565c14.726,17.684,31.426,33.637,48.166,49.416"
			/>
		<g>
			<polygon fill="#211915" points="481.661,408.332 471.175,405.975 475.438,403.99 475.826,399.307 			"/>
		</g>
	</g>
</g>
<g>
	<g>
		<path fill="none" stroke="#211915" stroke-width="2" stroke-miterlimit="10" d="M494.328,194.999
			c-10.128,17.184-20.433,34.767-24.548,54.519c-4.211,20.209-0.948,40.773,7.515,59.461c9.593,21.181,24.762,39.708,41.889,55.262
			c15.939,14.476,34.097,26.728,53.848,35.371c14.665,6.419,29.967,10.211,45.57,13.147"/>
		<g>
			<polygon fill="#211915" points="625.661,412.332 615.83,416.674 618.076,412.544 615.602,408.548 			"/>
		</g>
	</g>
</g>
<g>
	<g>
		<path fill="none" stroke="#211915" stroke-width="2" stroke-miterlimit="10" d="M800.994,178.999
			c30.487-0.752,65.361-2.733,91.769,15.366c26.225,17.972,34.844,51.195,37.066,81.214c2.288,30.888-0.986,62.901-9.145,92.782
			c-3.607,13.215-8.603,25.368-15.763,36.769"/>
		<g>
			<polygon fill="#211915" points="900.994,410.998 903.071,400.453 905.168,404.66 909.86,404.925 			"/>
		</g>
	</g>
</g>
<g>
	<g>
		<path fill="none" stroke="#211915" stroke-width="2" stroke-miterlimit="10" d="M661.661,312.332
			c23.22,1.707,46.46,3.37,69.583,6.133c19.632,2.345,39.338,5.384,58.344,10.957c25.459,7.467,49.914,20.489,61.116,45.772
			c3.975,8.97,6.192,18.531,8.013,28.144"/>
		<g>
			<polygon fill="#211915" points="859.661,410.332 854.244,401.049 858.601,402.818 862.295,399.912 			"/>
		</g>
	</g>
</g>
<g>
	<path fill="#DADEE0" d="M975.942,175.754c0-1.865-1.526-3.391-3.391-3.391h-25.433c-1.865,0-3.391,1.525-3.391,3.391v31.648
		c0,1.863,1.525,3.391,3.391,3.391h19.213l9.607-9.043L975.942,175.754z"/>
	<path fill="#0094D4" d="M943.729,175.754c0-1.865,1.525-3.391,3.391-3.391h22.606v-2.826c0-1.865-1.525-3.391-3.391-3.391h-25.432
		c-1.866,0-3.392,1.525-3.392,3.391v31.646c0,1.867,1.525,3.393,3.392,3.393h2.825V175.754z"/>
	<g>
		<path fill="#1F4254" d="M952.206,187.338h15.258c0.469,0,0.849-0.379,0.849-0.846c0-0.469-0.38-0.85-0.849-0.85h-15.258
			c-0.469,0-0.848,0.381-0.848,0.85C951.358,186.959,951.737,187.338,952.206,187.338"/>
		<path fill="#1F4254" d="M952.206,181.688h15.258c0.469,0,0.849-0.381,0.849-0.848c0-0.469-0.38-0.848-0.849-0.848h-15.258
			c-0.469,0-0.848,0.379-0.848,0.848C951.358,181.307,951.737,181.688,952.206,181.688"/>
		<path fill="#1F4254" d="M952.206,192.991h15.258c0.469,0,0.849-0.381,0.849-0.848c0-0.469-0.38-0.848-0.849-0.848h-15.258
			c-0.469,0-0.848,0.379-0.848,0.848C951.358,192.61,951.737,192.991,952.206,192.991"/>
		<path fill="#1F4254" d="M952.206,198.641h8.477c0.468,0,0.848-0.379,0.848-0.846c0-0.469-0.38-0.85-0.848-0.85h-8.477
			c-0.469,0-0.848,0.381-0.848,0.85C951.358,198.262,951.737,198.641,952.206,198.641"/>
	</g>
</g>
<rect x="912.396" y="215.212" fill="none" width="88.096" height="45.527"/>
<text transform="matrix(1 0 0 1 922.6943 223.7314)" font-family="'MyriadPro-Regular'" font-size="12">model.satdist</text>
<g>
	<g>
		<path fill="none" stroke="#211915" stroke-width="2" d="M690.327,134.999c14.813-2.197,29.628-4.099,44.612-4.569
			c19.306-0.604,38.638,0.727,57.792,3.096c38.693,4.786,77.805,12.983,114.438,26.532c9.672,3.577,19.007,7.804,28.202,12.399"/>
		<g>
			<polygon fill="#211915" points="941.661,175.665 930.938,174.931 934.849,172.322 934.521,167.633 			"/>
		</g>
	</g>
</g>
<g>
	<g>
		<path fill="none" stroke="#211915" stroke-width="2" stroke-miterlimit="10" d="M976.994,187.665
			c12.619,6.602,25.977,13.772,32.356,27.229c8.058,16.993,3.581,37.647-1.739,54.733c-7.736,24.844-19.771,48.374-32.675,70.886
			c-9.974,17.399-20.675,34.531-32.708,50.593c-3.479,4.644-7.055,9.258-11.201,13.295"/>
		<g>
			<polygon fill="#211915" points="925.661,408.998 930.433,399.367 931.352,403.978 935.811,405.464 			"/>
		</g>
	</g>
</g>
<rect x="266.224" y="500.67" fill="none" width="144.666" height="16.334"/>
<text transform="matrix(1 0 0 1 297.1396 509.1885)" font-family="'MyriadPro-Regular'" font-size="12">benchmark.html</text>
<path fill="#DADEE0" d="M533.722,461.819c0-1.864-1.526-3.391-3.391-3.391h-25.433c-1.865,0-3.391,1.526-3.391,3.391v31.647
	c0,1.865,1.525,3.391,3.391,3.391h19.213l9.607-9.041L533.722,461.819z"/>
<g>
	<path fill="#1F4254" d="M509.985,475.665h15.258c0.469,0,0.849-0.38,0.849-0.847c0-0.469-0.38-0.849-0.849-0.849h-15.258
		c-0.469,0-0.848,0.38-0.848,0.849C509.138,475.285,509.517,475.665,509.985,475.665"/>
	<path fill="#1F4254" d="M509.985,470.015h15.258c0.469,0,0.849-0.381,0.849-0.848c0-0.469-0.38-0.849-0.849-0.849h-15.258
		c-0.469,0-0.848,0.38-0.848,0.849C509.138,469.634,509.517,470.015,509.985,470.015"/>
	<path fill="#1F4254" d="M509.985,481.317h15.258c0.469,0,0.849-0.381,0.849-0.848c0-0.469-0.38-0.849-0.849-0.849h-15.258
		c-0.469,0-0.848,0.38-0.848,0.849C509.138,480.937,509.517,481.317,509.985,481.317"/>
	<path fill="#1F4254" d="M509.985,486.968h8.477c0.468,0,0.848-0.38,0.848-0.847c0-0.469-0.38-0.849-0.848-0.849h-8.477
		c-0.469,0-0.848,0.38-0.848,0.849C509.138,486.588,509.517,486.968,509.985,486.968"/>
</g>
<path fill="#DADEE0" d="M723.897,461.819c0-1.864-1.526-3.391-3.391-3.391h-25.433c-1.865,0-3.391,1.526-3.391,3.391v31.647
	c0,1.865,1.525,3.391,3.391,3.391h19.213l9.607-9.041L723.897,461.819z"/>
<g>
	<path fill="#1F4254" d="M700.161,475.665h15.258c0.469,0,0.849-0.38,0.849-0.847c0-0.469-0.38-0.849-0.849-0.849h-15.258
		c-0.469,0-0.848,0.38-0.848,0.849C699.313,475.285,699.692,475.665,700.161,475.665"/>
	<path fill="#1F4254" d="M700.161,470.015h15.258c0.469,0,0.849-0.381,0.849-0.848c0-0.469-0.38-0.849-0.849-0.849h-15.258
		c-0.469,0-0.848,0.38-0.848,0.849C699.313,469.634,699.692,470.015,700.161,470.015"/>
	<path fill="#1F4254" d="M700.161,481.317h15.258c0.469,0,0.849-0.381,0.849-0.848c0-0.469-0.38-0.849-0.849-0.849h-15.258
		c-0.469,0-0.848,0.38-0.848,0.849C699.313,480.937,699.692,481.317,700.161,481.317"/>
	<path fill="#1F4254" d="M700.161,486.968h8.477c0.468,0,0.848-0.38,0.848-0.847c0-0.469-0.38-0.849-0.848-0.849h-8.477
		c-0.469,0-0.848,0.38-0.848,0.849C699.313,486.588,699.692,486.968,700.161,486.968"/>
</g>
<path fill="#DADEE0" d="M926.563,461.819c0-1.864-1.526-3.391-3.391-3.391h-25.433c-1.865,0-3.391,1.526-3.391,3.391v31.647
	c0,1.865,1.525,3.391,3.391,3.391h19.213l9.607-9.041L926.563,461.819z"/>
<g>
	<path fill="#1F4254" d="M902.826,475.665h15.258c0.469,0,0.849-0.38,0.849-0.847c0-0.469-0.38-0.849-0.849-0.849h-15.258
		c-0.469,0-0.848,0.38-0.848,0.849C901.979,475.285,902.357,475.665,902.826,475.665"/>
	<path fill="#1F4254" d="M902.826,470.015h15.258c0.469,0,0.849-0.381,0.849-0.848c0-0.469-0.38-0.849-0.849-0.849h-15.258
		c-0.469,0-0.848,0.38-0.848,0.849C901.979,469.634,902.357,470.015,902.826,470.015"/>
	<path fill="#1F4254" d="M902.826,481.317h15.258c0.469,0,0.849-0.381,0.849-0.848c0-0.469-0.38-0.849-0.849-0.849h-15.258
		c-0.469,0-0.848,0.38-0.848,0.849C901.979,480.937,902.357,481.317,902.826,481.317"/>
	<path fill="#1F4254" d="M902.826,486.968h8.477c0.468,0,0.848-0.38,0.848-0.847c0-0.469-0.38-0.849-0.848-0.849h-8.477
		c-0.469,0-0.848,0.38-0.848,0.849C901.979,486.588,902.357,486.968,902.826,486.968"/>
</g>
<rect x="818.938" y="500.668" fill="none" width="169.793" height="16.334"/>
<text transform="matrix(1 0 0 1 827.7256 509.1875)" fill="#211915" font-family="'MyriadPro-Regular'" font-size="12">rq3_samplers_uniformity.html</text>
<rect x="443.835" y="500.668" fill="none" width="149.333" height="16.334"/>
<text transform="matrix(1 0 0 1 443.9468 509.1875)" fill="#211915" font-family="'MyriadPro-Regular'" font-size="12">rq1_samplers_scalability.html</text>
<g>
	<g>
		
			<line fill="none" stroke="#211915" stroke-width="2" stroke-miterlimit="10" x1="338.557" y1="438.388" x2="338.557" y2="451.368"/>
		<g>
			<polygon fill="#211915" points="338.557,458.429 334.491,448.479 338.557,450.84 342.621,448.479 			"/>
		</g>
	</g>
</g>
<g>
	<g>
		
			<line fill="none" stroke="#211915" stroke-width="2" stroke-miterlimit="10" x1="511.782" y1="438.389" x2="514.498" y2="451.515"/>
		<g>
			<polygon fill="#211915" points="515.929,458.429 509.932,449.51 514.391,450.998 517.893,447.862 			"/>
		</g>
	</g>
</g>
<g>
	<g>
		
			<line fill="none" stroke="#211915" stroke-width="2" stroke-miterlimit="10" x1="706.912" y1="438.346" x2="706.913" y2="451.368"/>
		<g>
			<polygon fill="#211915" points="706.913,458.429 702.847,448.479 706.913,450.84 710.978,448.479 			"/>
		</g>
	</g>
</g>
<g>
	<g>
		
			<line fill="none" stroke="#211915" stroke-width="2" stroke-miterlimit="10" x1="910.456" y1="438.345" x2="908.24" y2="451.467"/>
		<g>
			<polygon fill="#211915" points="907.064,458.429 904.713,447.941 908.328,450.946 912.729,449.295 			"/>
		</g>
	</g>
</g>
<g>
	<g>
		<line fill="none" stroke="#211915" stroke-width="2" stroke-miterlimit="10" x1="593.168" y1="142.8" x2="532.805" y2="165.445"/>
		<g>
			<polygon fill="#211915" points="526.194,167.925 534.081,160.625 533.299,165.26 536.937,168.236 			"/>
		</g>
	</g>
</g>
<path fill="#7DBD5E" d="M219.59,57.781c0,28.503,37.878,51.694,84.438,51.694h4.462l52.307,31.802
	c1.84,1.128,4.302,1.749,6.927,1.749c1.293,0,2.559-0.155,3.758-0.458c3.688-0.935,6.07-3.118,6.07-5.561v-27.532h40.356
	c46.56,0,84.438-23.19,84.438-51.694c0-28.505-37.878-51.695-84.438-51.695h-113.88C257.47,6.086,219.591,29.276,219.59,57.781z"/>
<rect x="244.329" y="23.788" fill="none" width="237.333" height="71.798"/>
<text transform="matrix(1 0 0 1 244.3281 32.3066)"><tspan x="0" y="0" fill="#F7F7F8" font-family="'MyriadPro-Regular'" font-size="12">* Get the population characterization </tspan><tspan x="0" y="14.4" fill="#F7F7F8" font-family="'MyriadPro-Regular'" font-size="12">(samplers_stats.csv, population_desc_stats.csv, </tspan><tspan x="0" y="28.8" fill="#F7F7F8" font-family="'MyriadPro-Regular'" font-size="12">and model.satdist)</tspan><tspan x="0" y="43.2" fill="#F7F7F8" font-family="'MyriadPro-Regular'" font-size="12">* Run the samplers to generate the samples</tspan><tspan x="0" y="57.6" fill="#F7F7F8" font-family="'MyriadPro-Regular'" font-size="12">(model.bdd, model.kus, etc.)</tspan></text>
<g>
	<path fill="#7DBD5E" d="M367.548,132.092c0,0,3.449,0.336,9.485,0.924c3.018,0.291,6.701,0.699,10.822,0.895
		c2.073,0.127,4.279,0.264,6.605,0.407c2.328,0.14,4.768,0.324,7.353,0.371c2.577,0.08,5.262,0.162,8.04,0.248
		c2.779,0.092,5.653,0.188,8.614,0.174c5.919,0.015,12.164,0.123,18.635-0.035c3.236-0.052,6.525-0.104,9.855-0.157
		c3.333-0.103,6.707-0.206,10.107-0.311c6.801-0.174,13.719-0.527,20.635-0.79c13.839-0.613,27.689-1.307,40.667-1.949
		c3.245-0.16,6.436-0.317,9.559-0.472c3.131-0.099,6.194-0.196,9.176-0.29c5.96-0.183,11.595-0.355,16.797-0.514
		c2.599-0.08,5.09-0.156,7.459-0.229c2.383-0.068,4.62-0.021,6.735-0.037c4.235,0.082,7.932,0.184,10.956,0.531
		c3.036,0.187,5.378,0.7,6.981,0.961c1.6,0.277,2.454,0.424,2.454,0.424s-0.86-0.105-2.473-0.303
		c-1.614-0.181-3.962-0.575-6.995-0.611c-3.02-0.196-6.69-0.115-10.898,0.012c-2.105,0.121-4.363,0.186-6.711,0.371
		c-2.36,0.189-4.842,0.389-7.432,0.597c-5.176,0.416-10.784,0.867-16.715,1.344c-2.963,0.241-6.008,0.489-9.119,0.742
		c-3.112,0.309-6.292,0.625-9.525,0.945c-12.935,1.285-26.724,2.664-40.536,3.964c-6.915,0.608-13.816,1.304-20.64,1.819
		c-3.41,0.274-6.793,0.546-10.135,0.815c-3.35,0.22-6.659,0.437-9.914,0.651c-6.507,0.481-12.824,0.687-18.811,0.968
		c-2.992,0.163-5.911,0.21-8.734,0.257c-2.825,0.053-5.554,0.104-8.173,0.153c-2.614,0.082-5.149,0.019-7.555-0.006
		c-2.408-0.03-4.691-0.058-6.838-0.084c-4.325,0.001-7.978-0.223-11.008-0.363c-6.058-0.288-9.52-0.453-9.52-0.453L367.548,132.092z
		"/>
</g>
<path fill="#7DBD5E" d="M102.95,233.424c0,12.746,37.878,23.116,84.438,23.116h4.462l52.307,14.221
	c1.84,0.504,4.302,0.782,6.927,0.782c1.293,0,2.559-0.069,3.758-0.205c3.688-0.418,6.07-1.395,6.07-2.487V256.54h40.356
	c46.56,0,84.438-10.37,84.438-23.116c0-12.747-37.878-23.117-84.438-23.117h-113.88C140.83,210.307,102.951,220.677,102.95,233.424z
	"/>
<rect x="132.689" y="228.008" fill="none" width="237.333" height="71.798"/>
<text transform="matrix(1 0 0 1 132.689 236.5273)" fill="#F7F7F8" font-family="'MyriadPro-Regular'" font-size="12">Uniformize the samples to a common format</text>
<g>
	<path fill="#7DBD5E" d="M250.604,260.882c0,0,4.567,0.336,12.559,0.924c3.996,0.291,8.862,0.699,14.366,0.897
		c2.761,0.128,5.7,0.265,8.797,0.409c3.1,0.14,6.353,0.325,9.776,0.372c3.418,0.08,6.978,0.163,10.663,0.248
		c3.686,0.092,7.496,0.189,11.418,0.174c7.843,0.014,16.114,0.123,24.68-0.035c4.283-0.052,8.638-0.104,13.046-0.157
		c4.41-0.103,8.874-0.207,13.373-0.311c8.999-0.175,18.148-0.527,27.295-0.791c18.303-0.664,36.607-1.327,53.766-1.949
		c4.29-0.16,8.509-0.317,12.638-0.471c4.135-0.099,8.181-0.196,12.119-0.29c7.874-0.183,15.317-0.355,22.189-0.514
		c3.435-0.08,6.726-0.156,9.856-0.228c3.141-0.069,6.103-0.021,8.895-0.038c5.59,0.082,10.467,0.182,14.467,0.529
		c4.01,0.187,7.127,0.697,9.257,0.961c2.128,0.278,3.263,0.426,3.263,0.426s-1.14-0.105-3.278-0.304
		c-2.138-0.184-5.261-0.575-9.268-0.611c-3.998-0.196-8.854-0.113-14.423,0.014c-2.785,0.121-5.763,0.185-8.877,0.371
		c-3.124,0.19-6.409,0.389-9.836,0.598c-6.852,0.416-14.275,0.867-22.126,1.344c-3.924,0.241-7.956,0.489-12.076,0.743
		c-4.121,0.309-8.331,0.625-12.612,0.945c-17.128,1.266-35.397,2.616-53.667,3.966c-9.146,0.608-18.283,1.304-27.299,1.818
		c-4.507,0.274-8.978,0.546-13.395,0.815c-4.423,0.219-8.792,0.436-13.09,0.649c-8.593,0.481-16.92,0.686-24.813,0.967
		c-3.946,0.163-7.79,0.209-11.509,0.257c-3.72,0.053-7.313,0.104-10.764,0.153c-3.445,0.083-6.771,0.02-9.928-0.005
		c-3.16-0.029-6.157-0.056-8.974-0.082c-5.657,0.004-10.501-0.22-14.507-0.361c-8.009-0.288-12.585-0.452-12.585-0.452
		L250.604,260.882z"/>
</g>
<g>
	<path fill="#7DBD5E" d="M145.963,424.957c0,0,0.486,0.097,1.396,0.277c0.455,0.091,1.017,0.202,1.677,0.334
		c0.667,0.137,1.423,0.285,2.207,0.403c0.802,0.133,1.689,0.28,2.656,0.44c0.976,0.152,2.068,0.276,3.218,0.433
		c1.151,0.168,2.388,0.276,3.691,0.408c1.301,0.146,2.678,0.245,4.118,0.342c2.877,0.215,6.016,0.326,9.347,0.383
		c3.333,0.047,6.862,0.013,10.525-0.114c7.325-0.238,15.18-0.813,23.061-1.485c7.881-0.643,15.756-1.434,23.174-2.083
		c3.709-0.325,7.304-0.59,10.715-0.796c3.411-0.2,6.649-0.29,9.618-0.379c2.958-0.121,5.692-0.237,8.111-0.259
		c2.421-0.021,4.534,0.041,6.268,0.184c1.733,0.142,3.088,0.354,3.988,0.598c0.456,0.095,0.789,0.229,1.017,0.302
		c0.227,0.077,0.344,0.116,0.344,0.116s-0.12-0.032-0.351-0.094c-0.233-0.059-0.57-0.171-1.03-0.236
		c-0.906-0.185-2.262-0.31-3.986-0.342c-1.725-0.032-3.821,0.039-6.22,0.212c-2.401,0.174-5.095,0.459-8.058,0.77
		c-2.955,0.318-6.128,0.729-9.484,1.227c-3.354,0.512-6.881,1.1-10.528,1.758c-7.292,1.316-15.082,2.826-22.904,4.191
		c-7.814,1.393-15.683,2.701-23.155,3.632c-3.734,0.472-7.369,0.842-10.834,1.11c-3.467,0.259-6.762,0.443-9.82,0.495
		c-1.528,0.038-2.995,0.064-4.394,0.038c-1.398-0.013-2.727-0.009-3.977-0.074c-1.253-0.054-2.414-0.08-3.513-0.149
		c-1.106-0.081-2.123-0.155-3.041-0.223c-0.939-0.061-1.713-0.141-2.374-0.215c-0.669-0.07-1.239-0.13-1.701-0.179
		c-0.923-0.098-1.416-0.149-1.416-0.149L145.963,424.957z"/>
</g>
<g>
	<path fill="#7DBD5E" d="M464.418,413.151l-0.242-0.801l0.21,0.329c-4.491-3.287-9.053-6.451-13.852-9.236l-3.571-2.123l-3.65-1.985
		c-2.407-1.365-4.927-2.53-7.394-3.777c-2.481-1.222-5.032-2.311-7.539-3.471c-2.563-1.051-5.095-2.157-7.675-3.158
		c-5.159-2.001-10.355-3.893-15.626-5.582l-3.94-1.292l-3.971-1.21c-2.637-0.83-5.311-1.557-7.971-2.313
		c-2.656-0.769-5.351-1.424-8.022-2.141l-8.065-1.986c-5.375-1.268-10.828-2.533-16.189-3.612l-8.213-1.646l-8.107-1.392
		c-2.689-0.497-5.438-0.79-8.155-1.186l-4.088-0.532c-1.363-0.16-2.731-0.261-4.096-0.395c-2.731-0.227-5.456-0.543-8.186-0.688
		l-8.179-0.406c-2.721-0.147-5.44-0.089-8.155-0.182c-1.356-0.026-2.715-0.11-4.069-0.09c-1.354,0.029-2.707,0.067-4.06,0.063
		c-5.424-0.075-10.8,0.27-16.208,0.448l-8.166,0.706l-7.852,1.042l-7.99,1.416l-7.995,1.738c-2.66,0.651-5.313,1.361-8,1.995
		l-8.008,2.21c-2.677,0.76-5.338,1.58-8.042,2.32c-2.681,0.807-5.371,1.606-8.105,2.33l-0.498-1.092
		c2.365-1.55,4.772-3.027,7.194-4.488c2.447-1.414,4.929-2.766,7.41-4.146l7.632-3.785c2.598-1.165,5.211-2.313,7.853-3.411
		c2.681-0.999,5.359-2.034,8.08-2.966c2.752-0.852,5.498-1.698,8.298-2.482c2.856-0.682,5.765-1.351,8.625-1.968l8.457-1.354
		l8.619-0.739l2.158-0.169c0.72-0.041,1.438-0.027,2.158-0.043l4.314-0.053c1.438-0.027,2.877-0.012,4.315-0.004
		c1.437,0.017,2.866,0.139,4.299,0.204c1.432,0.068,2.862,0.188,4.292,0.28c1.428,0.116,2.864,0.158,4.281,0.351l8.507,1.057
		c2.831,0.363,5.628,0.905,8.439,1.345c1.402,0.237,2.811,0.442,4.206,0.707l4.176,0.832c2.784,0.56,5.572,1.014,8.346,1.682
		l8.326,1.852l8.126,2.041c5.528,1.395,10.891,2.916,16.318,4.476c5.393,1.628,10.767,3.319,16.099,5.151
		c2.662,0.929,5.331,1.826,7.969,2.83l3.965,1.468l3.936,1.554c5.244,2.073,10.404,4.371,15.51,6.763
		c2.553,1.198,5.059,2.502,7.585,3.748c2.476,1.356,4.985,2.639,7.424,4.055c2.426,1.44,4.893,2.796,7.248,4.352l3.564,2.269
		l3.476,2.401c4.633,3.2,8.992,6.777,13.239,10.439l0.171,0.147l0.04,0.182l0.178,0.818L464.418,413.151z"/>
</g>
<g>
	<path fill="#7DBD5E" d="M830.392,417.102c-11.609-4.144-23.306-7.844-35.17-11.016c-11.841-3.235-23.864-5.74-35.954-7.688
		c-6.023-1.038-12.156-1.72-18.171-2.431l-18.399-1.583c-6.134-0.585-12.265-0.939-18.394-1.328l-18.397-1.191l-18.456-1.334
		c-1.538-0.118-3.077-0.209-4.615-0.349l-4.615-0.486l-9.231-0.976l-9.235-0.976l-2.31-0.244c-0.862-0.088-1.55-0.217-2.334-0.322
		l-4.568-0.669c-3.049-0.464-6.083-0.849-9.143-1.378l-9.179-1.572c-3.072-0.503-6.093-1.103-9.13-1.672l-9.101-1.736l-18.127-3.646
		c-12.068-2.476-24.101-4.877-36.149-7.097l-9.043-1.536l-4.475-0.749l-4.567-0.673l-9.135-1.344
		c-3.043-0.438-6.097-0.932-9.122-1.276l-18.188-2.205l-18.273-1.819l-18.294-1.53c-3.045-0.295-6.099-0.481-9.152-0.682
		l-9.157-0.62c-6.098-0.515-12.215-0.722-18.322-1.086c-3.055-0.169-6.107-0.394-9.165-0.518l-9.173-0.351l-9.173-0.414l-9.18-0.242
		l-9.183-0.226l-2.296-0.057l-1.103-0.018l-1.154-0.006l-4.617-0.037l-9.226-0.097l-9.138,0.081l-4.572,0.04l-4.576,0.16
		l-9.163,0.249c-3.051,0.13-6.094,0.339-9.145,0.505c-3.049,0.179-6.105,0.322-9.142,0.618l-9.134,0.779l-2.286,0.197l-2.272,0.284
		l-4.548,0.569c-12.185,1.276-24.198,3.645-36.283,6.036l0.449-0.519l-0.251,1.238l-1.09-0.15l0.096-1.26l0.028-0.375l0.421-0.144
		c11.686-3.983,23.626-7.461,35.794-9.891l4.56-0.939l2.282-0.47l2.293-0.384l9.188-1.521c3.06-0.564,6.146-0.86,9.225-1.256
		c3.081-0.366,6.163-0.777,9.249-1.107c6.181-0.529,12.348-1.243,18.564-1.509l9.316-0.539l9.237-0.356l4.615-0.148l1.154-0.033
		l1.205-0.021l2.32-0.021l9.281-0.084l9.284-0.067l9.284,0.119l9.284,0.182c3.095,0.067,6.186,0.236,9.279,0.35
		c6.184,0.299,12.373,0.521,18.546,1.009l9.261,0.7c3.087,0.236,6.174,0.459,9.253,0.79c6.158,0.649,12.319,1.255,18.469,1.964
		l18.413,2.414l18.401,2.797c3.082,0.434,6.092,1.001,9.13,1.518l9.097,1.579l4.548,0.79l4.61,0.893l9.12,1.789
		c12.113,2.512,24.169,5.2,36.162,7.94l17.994,4.039l8.997,1.925c2.999,0.632,6.002,1.298,8.994,1.855l8.985,1.747
		c2.993,0.589,6.058,1.048,9.083,1.578l4.552,0.77c0.739,0.117,1.563,0.283,2.23,0.359l2.276,0.291l9.104,1.167l9.107,1.168
		l4.556,0.584c1.522,0.172,3.055,0.297,4.582,0.448l18.345,1.739l18.417,1.723c6.144,0.565,12.292,1.099,18.396,1.856l18.346,2.106
		c6.186,0.907,12.272,1.763,18.353,2.987c12.149,2.316,24.193,5.181,36.006,8.783c11.812,3.581,23.476,7.705,34.913,12.223
		L830.392,417.102z"/>
</g>
<rect x="612.699" y="500.668" fill="none" width="188.7" height="16.334"/>
<text transform="matrix(1 0 0 1 614.3564 509.1875)" fill="#211915" font-family="'MyriadPro-Regular'" font-size="12">rq2_goodness_of_fit_scalability.html</text>
<path fill="#7DBD5E" d="M3.758,392.027c0,14.965,37.878,27.14,84.438,27.14h4.462l52.307,16.696c1.84,0.593,4.302,0.919,6.927,0.919
	c1.293,0,2.559-0.08,3.758-0.241c3.688-0.49,6.07-1.637,6.07-2.919v-14.455h40.356c46.56,0,84.438-12.175,84.438-27.14
	s-37.878-27.141-84.438-27.141H88.197C41.638,364.887,3.759,377.063,3.758,392.027z"/>
<rect x="33.762" y="377.101" fill="none" width="237.333" height="71.799"/>
<text transform="matrix(1 0 0 1 33.7617 385.6211)"><tspan x="0" y="0" fill="#F7F7F8" font-family="'MyriadPro-Regular'" font-size="12">Generate the reports that describe the </tspan><tspan x="0" y="14.399" fill="#F7F7F8" font-family="'MyriadPro-Regular'" font-size="12">benchmark and answer the research questions</tspan></text>
<g>
	<path fill="#7DBD5E" d="M653.235,437.244c0,0-0.965,2.229-2.77,6.408c-1.834,4.166-4.523,10.318-8.443,17.939
		c-0.459,0.968-0.998,1.929-1.566,2.907c-0.561,0.984-1.133,1.992-1.721,3.024c-0.59,1.033-1.191,2.09-1.807,3.171
		c-0.672,1.135-1.338,2.12-2.037,3.217c-0.349,0.538-0.702,1.081-1.057,1.629c-0.386,0.547-0.775,1.1-1.168,1.657
		c-0.799,1.102-1.563,2.285-2.438,3.381c-0.859,1.115-1.733,2.25-2.623,3.405c-0.936,1.119-1.887,2.257-2.854,3.414
		c-3.951,4.56-8.482,9.149-13.658,13.555l-0.972,0.83l-0.488,0.418l-0.245,0.209c-0.067,0.055-0.022,0.026-0.182,0.148l-0.125,0.097
		c-0.663,0.517-1.331,1.035-2.002,1.558c-1.36,1.039-2.666,2.118-4.115,3.158c-1.473,1.033-2.962,2.078-4.468,3.134
		c-1.5,1.088-3.079,1.99-4.642,3.011c-12.567,7.982-27.345,14.654-43.438,20.07c-8.052,2.708-16.461,5.015-25.113,7.055
		c-2.16,0.532-4.341,1.007-6.536,1.477c-2.192,0.488-4.399,0.949-6.622,1.374c-2.221,0.444-4.454,0.886-6.701,1.277
		c-1.124,0.203-2.25,0.407-3.378,0.61l-0.847,0.153l-0.958,0.146l-1.686,0.255c-4.5,0.681-9.038,1.368-13.608,2.06
		c-1.146,0.168-2.281,0.357-3.441,0.509c-1.174,0.128-2.35,0.257-3.528,0.386c-2.357,0.257-4.723,0.515-7.095,0.773
		c-2.375,0.258-4.757,0.517-7.145,0.775l-1.793,0.19l-1.789,0.115l-3.585,0.232c-4.79,0.307-9.603,0.615-14.436,0.925
		c-19.354,0.729-39.054,0.52-58.715-0.711c-9.806-0.826-19.643-1.501-29.379-2.744c-2.438-0.279-4.875-0.559-7.309-0.838
		l-1.825-0.21l-0.912-0.105l-0.975-0.128l-3.577-0.502c-4.716-0.622-9.645-1.432-14.469-2.209
		c-19.201-3.229-37.992-7.662-55.723-13.623c-17.727-5.955-34.35-13.441-49.327-21.949c-1.862-1.083-3.711-2.157-5.547-3.225
		c-1.849-1.041-3.594-2.24-5.374-3.339c-0.883-0.561-1.764-1.118-2.64-1.675l-1.518-0.971l-1.228-0.861
		c-1.635-1.146-3.256-2.282-4.864-3.409c-1.601-1.137-3.188-2.265-4.762-3.382l-1.177-0.838l-1.182-0.938
		c-0.785-0.624-1.566-1.245-2.344-1.863c-3.101-2.475-6.167-4.888-9.061-7.324c-5.545-5.058-10.962-9.754-15.598-14.761
		c-1.182-1.223-2.349-2.431-3.5-3.622c-0.574-0.597-1.143-1.188-1.708-1.776l-0.423-0.44l-0.309-0.32l-0.195-0.225l-0.776-0.896
		c-2.054-2.386-4.05-4.703-5.983-6.949c-1.942-2.198-3.759-4.556-5.503-6.781c-1.738-2.229-3.413-4.379-5.022-6.444
		c-3.015-4.206-5.784-8.07-8.285-11.56c-4.808-7.085-8.52-12.693-10.933-16.571c-2.427-3.879-3.722-5.947-3.722-5.947l1.497-1.17
		c0,0,1.691,1.759,4.861,5.058c1.569,1.656,3.505,3.699,5.78,6.101c2.278,2.391,4.919,5.116,7.797,8.226
		c2.954,3.021,6.225,6.366,9.786,10.008c1.799,1.754,3.672,3.579,5.616,5.474c1.947,1.887,3.866,3.874,6.117,5.854
		c2.184,2.002,4.438,4.068,6.759,6.196l0.871,0.803l0.219,0.201c-0.163-0.166,0.02,0.008,0.012-0.006l0.113,0.094l0.45,0.373
		c0.601,0.498,1.206,0.999,1.815,1.504c1.214,1.011,2.444,2.036,3.69,3.073c4.852,4.297,10.443,8.207,16.031,12.532
		c2.872,2.007,5.838,3.94,8.805,6c0.744,0.51,1.491,1.021,2.242,1.536l1.127,0.772l1.236,0.747c1.652,0.997,3.319,2.004,5,3.02
		c1.675,1.024,3.363,2.059,5.065,3.101l1.279,0.783c-0.042-0.028,0.32,0.203-0.053-0.039l0.16,0.088l0.319,0.175l0.64,0.352
		c0.854,0.47,1.71,0.94,2.57,1.413c3.414,1.93,6.974,3.728,10.557,5.585c14.464,7.2,30.234,13.758,46.993,19.473
		c16.728,5.799,34.45,10.762,52.754,14.894c4.569,0.976,9.066,1.964,13.855,2.848l3.548,0.679l0.812,0.146l0.878,0.144l1.758,0.287
		c2.345,0.384,4.693,0.769,7.043,1.153c2.352,0.385,4.706,0.771,7.062,1.156l1.769,0.279l1.777,0.218l3.557,0.433
		c4.747,0.572,9.499,1.145,14.25,1.718c19.059,1.824,38.208,2.661,57.075,2.577c4.713-0.146,9.407-0.292,14.078-0.438l3.5-0.109
		c1.168-0.025,2.329-0.076,3.476-0.17c2.304-0.156,4.601-0.313,6.892-0.469c2.292-0.155,4.578-0.31,6.856-0.463
		c1.14-0.077,2.278-0.154,3.414-0.23c1.145-0.103,2.302-0.247,3.448-0.368c4.595-0.507,9.157-1.01,13.681-1.509l1.695-0.187
		l0.729-0.078l0.832-0.116c1.109-0.154,2.215-0.309,3.319-0.463c2.211-0.293,4.401-0.636,6.581-0.98
		c2.184-0.327,4.349-0.688,6.496-1.077c2.152-0.37,4.292-0.745,6.405-1.177c8.473-1.65,16.699-3.546,24.588-5.772
		c15.755-4.494,30.23-10.231,42.613-17.306c1.529-0.899,3.126-1.714,4.557-2.658c1.458-0.922,2.9-1.833,4.326-2.734
		c1.428-0.923,2.833-1.975,4.224-2.938c0.695-0.49,1.386-0.978,2.073-1.462c0.63-0.486,1.257-0.971,1.879-1.451
		c5.127-3.964,9.67-8.15,13.67-12.35c0.982-1.068,1.948-2.119,2.898-3.153c0.908-1.071,1.802-2.125,2.679-3.16
		c0.901-1.024,1.658-2.094,2.473-3.109c0.399-0.513,0.795-1.02,1.187-1.522c0.38-0.529,0.757-1.055,1.13-1.573
		c0.722-1.032,1.526-2.083,2.15-3.03c0.656-1.019,1.298-2.015,1.925-2.988c0.628-0.976,1.241-1.928,1.84-2.856
		c0.607-0.925,1.187-1.835,1.691-2.762c4.258-7.273,7.252-13.21,9.311-17.269c2.031-4.074,3.115-6.246,3.115-6.246L653.235,437.244z
		"/>
</g>
</svg>
